<svg width="142" height="40" viewBox="0 0 142 40" fill="none" xmlns="http://www.w3.org/2000/svg">
<g clip-path="url(#clip0_359_176)">
<path d="M67.9813 31.2898H63.5905C63.5627 31.2898 63.5627 31.2898 63.5488 31.276L59.7694 26.6628L55.9899 31.276C55.976 31.2898 55.9621 31.2898 55.9482 31.2898H52.4328C52.405 31.2898 52.3911 31.276 52.3772 31.2621C52.3772 31.2482 52.3772 31.2204 52.3911 31.2065L57.963 24.3701L52.4606 17.6032C52.4467 17.5755 52.4467 17.5616 52.4467 17.5338C52.4606 17.5199 52.4745 17.506 52.4884 17.506H56.8792C56.8931 17.506 56.907 17.5199 56.9209 17.5338L60.2418 21.6467L63.6183 17.5338C63.6322 17.5199 63.6461 17.506 63.66 17.506H67.231C67.2449 17.506 67.2727 17.5199 67.2866 17.5338C67.3005 17.5616 67.2866 17.5755 67.2727 17.6032L62.062 23.8699L68.0369 31.2065C68.0508 31.2204 68.0508 31.2482 68.0508 31.2621C68.023 31.2898 68.0091 31.2898 67.9813 31.2898Z" fill="#909090"/>
<path d="M91.728 19.9237C89.7827 19.9237 88.4627 21.1048 88.0736 23.1474H94.6876V23.0084C94.6876 21.3827 93.4788 19.9237 91.728 19.9237ZM98.0919 25.2594C98.078 25.2733 98.0641 25.2872 98.0502 25.2872H88.0041C88.2125 27.6216 89.7271 28.9555 92.1865 28.9555C93.7011 28.9555 95.3129 28.4414 97.5778 27.2325C97.6195 27.2047 97.6612 27.2464 97.6612 27.2881V30.3728C97.6612 30.4006 97.6473 30.4145 97.6334 30.4145C95.5213 31.3037 93.3954 31.9151 91.728 31.9151C87.4066 31.9151 84.2664 28.7609 84.2664 24.4257C84.2664 20.0904 87.4066 16.9363 91.728 16.9363C95.6742 16.9363 98.2031 19.5902 98.2031 23.2446C98.2031 23.8421 98.1058 25.2177 98.0919 25.2594Z" fill="#909090"/>
<path d="M118.49 14.6436C117.253 14.6436 116.253 13.657 116.253 12.4482C116.253 11.1976 117.253 10.1833 118.49 10.1833C119.726 10.1833 120.727 11.1976 120.727 12.4482C120.727 13.657 119.726 14.6436 118.49 14.6436ZM116.683 31.2898C116.642 31.2898 116.628 31.2759 116.628 31.2343V17.5477C116.628 17.5199 116.642 17.4921 116.67 17.4921H120.296C120.324 17.4921 120.338 17.5199 120.338 17.5477V31.2343C120.338 31.2759 120.31 31.2898 120.282 31.2898H116.683Z" fill="#909090"/>
<path d="M74.6233 29.2334C73.9702 29.2334 73.3033 29.1361 72.5251 28.9416L72.539 20.1599C73.4422 19.8681 74.2203 19.7431 74.9984 19.7431C77.5134 19.7431 79.1947 21.5911 79.1947 24.3562C79.1947 27.3159 77.4023 29.2334 74.6233 29.2334ZM75.6098 16.9363C74.5816 16.9363 73.5534 17.1169 72.4696 17.4921H68.8568C68.8291 17.4921 68.8013 17.5199 68.8013 17.5477V39.9881C69.8851 39.8353 71.219 39.4462 72.5251 38.5292V31.7067C73.4144 31.8317 74.1509 31.9151 74.8595 31.9151C79.8061 31.9151 83.002 28.9555 83.002 24.3701C83.002 19.9932 79.959 16.9363 75.6098 16.9363Z" fill="#909090"/>
<path d="M110.083 28.094C108.958 28.6915 107.943 28.9694 106.999 28.9694C104.762 28.9694 103.414 27.3853 103.414 24.7314C103.414 21.6745 105.123 19.6875 107.777 19.6875C108.513 19.6875 109.222 19.8681 110.083 20.2572V28.094ZM110.083 10.2528V17.4087C109.027 17.103 108.096 16.9641 107.151 16.9641C102.844 16.9641 99.6064 20.2016 99.6064 24.5091C99.6064 28.7887 102.469 31.9012 106.415 31.9012C107.777 31.9012 109.055 31.5539 110.556 30.7896V32.0263C111.542 31.8318 112.682 31.4427 113.807 30.6368V8.77991C112.709 8.93275 111.403 9.30792 110.083 10.2528Z" fill="#909090"/>
<path d="M132.913 28.0662C131.815 28.6915 130.884 28.9971 130.051 28.9971C127.647 28.9971 126.215 27.4131 126.215 24.7592C126.215 21.7439 127.911 19.7153 130.426 19.7153C131.093 19.7153 131.912 19.9793 132.913 20.5073V28.0662ZM136.637 17.3253C136.637 17.242 136.567 17.1725 136.484 17.1725H133.552C133.469 17.1725 133.385 17.242 133.385 17.3253V17.8255H133.316C131.968 17.2281 130.801 16.9641 129.675 16.9641C125.618 16.9641 122.436 20.3266 122.436 24.6341C122.436 28.9832 125.285 31.9012 129.522 31.9012C130.648 31.9012 132.107 31.8178 133.469 30.2616V32.0263C134.427 31.8178 135.567 31.4149 136.637 30.6368V17.3253Z" fill="#909090"/>
<path d="M42.4007 27.8717H51.5019C51.3629 28.886 51.0156 30.081 50.2374 31.2898H40.7749C39.6217 31.2898 38.6629 30.3867 38.5517 29.2612C38.5517 29.2473 38.5378 29.2334 38.5378 29.2056V11.2532C38.5378 11.2393 38.5517 11.2254 38.5517 11.2115C38.6629 10.0721 39.6217 9.16895 40.7749 9.16895H51.488C51.3491 10.1833 51.0017 11.406 50.2097 12.6149H42.4007V17.506H50.1402C50.168 17.506 50.1958 17.5338 50.1958 17.5615V20.9519C50.1958 20.9797 50.168 21.0075 50.1402 21.0075H42.4007V27.8717Z" fill="#909090"/>
<path d="M31.0067 31.5816C30.1035 31.5816 29.5477 30.873 29.5477 30.0115C29.5477 29.0944 30.1869 28.4413 31.0067 28.4413C31.8126 28.4413 32.4518 29.0805 32.4518 30.0115C32.4518 30.9424 31.8126 31.5816 31.0067 31.5816ZM31.0067 28.2746C30.0896 28.2746 29.2976 28.9693 29.2976 30.0115C29.2976 30.998 30.0063 31.7484 31.0067 31.7484C31.9099 31.7484 32.7019 31.0536 32.7019 30.0115C32.7019 28.9693 31.9238 28.2746 31.0067 28.2746Z" fill="#909090"/>
<path d="M30.6038 29.8725V29.2334H31.0345C31.2568 29.2334 31.5069 29.2612 31.5069 29.5252C31.5069 29.8447 31.2707 29.8586 31.0067 29.8586C30.9928 29.8725 30.6038 29.8725 30.6038 29.8725ZM31.8126 29.5668C31.8126 29.15 31.5625 28.9694 31.0623 28.9694H30.2842V31.0258H30.6177V30.1504H30.9372L31.4653 31.0258H31.8543L31.2846 30.1226C31.5903 30.0949 31.8126 29.942 31.8126 29.5668Z" fill="#909090"/>
<path d="M139.638 19.7708C138.735 19.7708 138.179 19.0622 138.179 18.2007C138.179 17.2836 138.818 16.6306 139.638 16.6306C140.444 16.6306 141.083 17.2697 141.083 18.2007C141.083 19.1317 140.444 19.7708 139.638 19.7708ZM139.638 16.4777C138.721 16.4777 137.929 17.1725 137.929 18.2146C137.929 19.2011 138.638 19.9515 139.638 19.9515C140.541 19.9515 141.333 19.2567 141.333 18.2146C141.333 17.1586 140.541 16.4777 139.638 16.4777Z" fill="#909090"/>
<path d="M139.221 18.0618V17.4365H139.652C139.874 17.4365 140.124 17.4643 140.124 17.7283C140.124 18.0479 139.888 18.0618 139.624 18.0618H139.221ZM140.444 17.77C140.444 17.3531 140.194 17.1725 139.694 17.1725H138.916V19.2289H139.249V18.3536H139.569L140.097 19.2289H140.486L139.916 18.3258C140.208 18.298 140.444 18.1451 140.444 17.77Z" fill="#909090"/>
<path d="M19.2654 12.601L18.6124 10.7391L12.9988 3.24965L13.9992 2.99954L23.6563 11.3504L29.3393 9.72473C30.0063 9.55799 30.7705 9.5163 31.3402 9.5163C29.5616 5.66738 26.2824 2.49932 21.975 0.970862C13.4573 -2.07215 4.07817 2.38815 1.04906 10.9197C0.104194 13.5598 -0.104231 16.2832 0.284829 18.8677L13.8881 14.1433L19.2654 12.601Z" fill="#909090"/>
<path d="M31.9516 10.9892C31.4514 11.3088 30.715 11.7395 29.9924 11.9757L24.2955 13.6015L20.5021 25.8013L19.5156 26.1209L20.3215 16.8112L19.8769 14.8798L14.5412 16.4083L0.423828 19.7014C1.54933 25.1204 5.38435 29.8586 10.984 31.8456C19.5156 34.8886 28.8808 30.4283 31.9238 21.8968C33.23 18.2424 33.1466 14.4074 31.9516 10.9892Z" fill="#909090"/>
<path d="M19.863 14.8659L20.3076 16.7973L19.5017 26.107L20.4883 25.7874L24.2816 13.5876L29.9786 11.9618C30.7011 11.7256 31.4375 11.3088 31.9378 10.9753C31.7571 10.4751 31.5626 9.98875 31.3403 9.50242C30.7567 9.50242 30.0064 9.53021 29.3394 9.71085L23.6563 11.3366L13.9993 2.98566L12.9988 3.23577L18.5985 10.7252L19.2516 12.5871L13.8742 14.1295L0.270996 18.8538C0.312681 19.1317 0.368261 19.4235 0.423841 19.7014L14.5273 16.3805L19.863 14.8659Z" fill="#909090"/>
</g>
<defs>
<clipPath id="clip0_359_176">
<rect width="141.243" height="40" fill="white" transform="translate(0.090332 0.00012207)"/>
</clipPath>
</defs>
</svg>
