<svg width="122" height="24" viewBox="0 0 122 24" fill="none" xmlns="http://www.w3.org/2000/svg">
<path fill-rule="evenodd" clip-rule="evenodd" d="M15.3334 7.01118C14.3467 6.3519 13.1867 6 12 6V0C14.3734 0 16.6934 0.703788 18.6668 2.02237C20.6402 3.34094 22.1783 5.21509 23.0866 7.40778C23.9948 9.60048 24.2324 12.0133 23.7694 14.3411C23.3064 16.6688 22.1635 18.8071 20.4853 20.4853C18.8071 22.1635 16.6688 23.3064 14.3411 23.7694C12.0133 24.2324 9.60048 23.9948 7.40778 23.0866C5.21508 22.1783 3.34094 20.6402 2.02237 18.6668C0.703788 16.6934 0 14.3734 0 12H6C6 13.1867 6.3519 14.3467 7.01118 15.3334C7.67046 16.3201 8.60754 17.0891 9.70392 17.5433C10.8002 17.9974 12.0067 18.1162 13.1705 17.8847C14.3344 17.6532 15.4035 17.0818 16.2427 16.2427C17.0818 15.4035 17.6532 14.3344 17.8847 13.1705C18.1162 12.0067 17.9974 10.8002 17.5433 9.70392C17.0891 8.60754 16.3201 7.67046 15.3334 7.01118Z" fill="#35AFF4"/>
<path fill-rule="evenodd" clip-rule="evenodd" d="M6 3.17096e-06C6 0.787934 5.84481 1.56815 5.54328 2.29611C5.24175 3.02406 4.79979 3.68549 4.24264 4.24264C3.68549 4.7998 3.02406 5.24175 2.2961 5.54328C1.56814 5.84481 0.787929 6 2.62266e-07 6L0 12C1.57586 12 3.13629 11.6896 4.5922 11.0866C6.04812 10.4835 7.371 9.59958 8.48526 8.48526C9.59958 7.371 10.4835 6.04812 11.0866 4.5922C11.6896 3.13629 12 1.57586 12 0L6 3.17096e-06Z" fill="#35AFF4"/>
<path d="M75.3714 8.6715H72.4602V17.9189H75.3714V8.6715Z" fill="#35AFF4"/>
<path d="M72.7842 6.93996C73.0884 7.2444 73.4688 7.39662 73.9254 7.39662C74.382 7.39662 74.7564 7.2444 75.048 6.93996C75.3402 6.62286 75.486 6.24228 75.486 5.79831C75.486 5.34166 75.3402 4.96109 75.048 4.65667C74.7564 4.35221 74.382 4.2 73.9254 4.2C73.4688 4.2 73.0884 4.35221 72.7842 4.65667C72.492 4.96109 72.3462 5.34166 72.3462 5.79831C72.3462 6.24228 72.492 6.62286 72.7842 6.93996Z" fill="#35AFF4"/>
<path d="M30.6936 17.9189V4.48541H33.6809V15.2931H39.6366V17.9189H30.6936Z" fill="#35AFF4"/>
<path fill-rule="evenodd" clip-rule="evenodd" d="M45.0164 18.1282C44.065 18.1282 43.2025 17.9189 42.4286 17.5003C41.6675 17.069 41.065 16.4855 40.621 15.7497C40.1771 15.014 39.9551 14.1895 39.9551 13.2761C39.9551 12.3628 40.1771 11.5447 40.621 10.8216C41.065 10.0985 41.6675 9.5277 42.4286 9.10914C43.1897 8.6778 44.0524 8.46216 45.0164 8.46216C45.9805 8.46216 46.843 8.6715 47.6041 9.09006C48.3652 9.50868 48.9678 10.0859 49.4117 10.8216C49.8557 11.5447 50.0777 12.3628 50.0777 13.2761C50.0777 14.1895 49.8557 15.014 49.4117 15.7497C48.9678 16.4855 48.3652 17.069 47.6041 17.5003C46.843 17.9189 45.9805 18.1282 45.0164 18.1282ZM45.0164 15.4834C45.435 15.4834 45.8029 15.3946 46.12 15.217C46.4371 15.0267 46.6781 14.7667 46.843 14.4368C47.0206 14.0944 47.1094 13.7074 47.1094 13.2761C47.1094 12.8449 47.0206 12.4706 46.843 12.1535C46.6654 11.8237 46.4181 11.57 46.1009 11.3924C45.7965 11.2021 45.435 11.107 45.0164 11.107C44.6105 11.107 44.249 11.2021 43.9318 11.3924C43.6147 11.57 43.3673 11.8237 43.1897 12.1535C43.0121 12.4834 42.9234 12.8639 42.9234 13.2952C42.9234 13.7138 43.0121 14.0944 43.1897 14.4368C43.3673 14.7667 43.6147 15.0267 43.9318 15.217C44.249 15.3946 44.6105 15.4834 45.0164 15.4834Z" fill="#35AFF4"/>
<path fill-rule="evenodd" clip-rule="evenodd" d="M52.3835 21.5341C53.1573 21.8893 54.0516 22.0669 55.0664 22.0669C56.0558 22.0669 56.9374 21.8702 57.7112 21.477C58.485 21.0838 59.0938 20.5384 59.5378 19.8407C59.9818 19.143 60.2041 18.3185 60.2041 17.3671V8.6715H57.3496V9.2928C57.1374 9.11412 56.8963 8.96412 56.6266 8.84274C56.1319 8.60172 55.5674 8.48118 54.9332 8.48118C54.0833 8.48118 53.3285 8.68416 52.6689 9.09006C52.0092 9.4833 51.4892 10.0288 51.1086 10.7264C50.728 11.4115 50.5378 12.1852 50.5378 13.0478C50.5378 13.8977 50.728 14.6715 51.1086 15.3692C51.4892 16.0669 52.0092 16.6187 52.6689 17.0246C53.3285 17.4305 54.0833 17.6335 54.9332 17.6335C55.5547 17.6335 56.1192 17.513 56.6266 17.272C56.8724 17.1552 57.0944 17.0176 57.2926 16.8592V17.4432C57.2926 18.0901 57.0833 18.5912 56.6647 18.9464C56.2588 19.3016 55.6943 19.4791 54.9712 19.4791C54.3877 19.4791 53.8867 19.3777 53.4681 19.1747C53.0622 18.9718 52.6942 18.6736 52.3644 18.2804L50.5759 20.069C51.0198 20.7032 51.6224 21.1916 52.3835 21.5341ZM56.5315 14.7793C56.2397 14.9569 55.8909 15.0457 55.485 15.0457C55.0791 15.0457 54.7239 14.9569 54.4194 14.7793C54.1276 14.6017 53.8993 14.3607 53.7345 14.0563C53.5695 13.7392 53.4871 13.403 53.4871 13.0478C53.4871 12.6673 53.5695 12.3248 53.7345 12.0203C53.8993 11.7159 54.134 11.4749 54.4384 11.2973C54.7429 11.1197 55.0917 11.0309 55.485 11.0309C55.8909 11.0309 56.2397 11.1197 56.5315 11.2973C56.8359 11.4749 57.0642 11.7159 57.2165 12.0203C57.3814 12.3248 57.4638 12.6673 57.4638 13.0478C57.4638 13.4284 57.3814 13.7708 57.2165 14.0753C57.0642 14.3671 56.8359 14.6017 56.5315 14.7793Z" fill="#35AFF4"/>
<path fill-rule="evenodd" clip-rule="evenodd" d="M66.3306 18.1282C65.379 18.1282 64.5162 17.9189 63.7428 17.5003C62.9814 17.069 62.379 16.4855 61.935 15.7497C61.491 15.014 61.269 14.1895 61.269 13.2761C61.269 12.3628 61.491 11.5447 61.935 10.8216C62.379 10.0985 62.9814 9.5277 63.7428 9.10914C64.5036 8.6778 65.3664 8.46216 66.3306 8.46216C67.2942 8.46216 68.157 8.6715 68.9178 9.09006C69.6792 9.50868 70.2816 10.0859 70.7256 10.8216C71.1696 11.5447 71.3916 12.3628 71.3916 13.2761C71.3916 14.1895 71.1696 15.014 70.7256 15.7497C70.2816 16.4855 69.6792 17.069 68.9178 17.5003C68.157 17.9189 67.2942 18.1282 66.3306 18.1282ZM66.3306 15.4834C66.7488 15.4834 67.1166 15.3946 67.434 15.217C67.7508 15.0267 67.992 14.7667 68.157 14.4368C68.3346 14.0944 68.4234 13.7074 68.4234 13.2761C68.4234 12.8449 68.3346 12.4706 68.157 12.1535C67.9794 11.8237 67.7322 11.57 67.4148 11.3924C67.1106 11.2021 66.7488 11.107 66.3306 11.107C65.9244 11.107 65.5626 11.2021 65.2458 11.3924C64.9284 11.57 64.6812 11.8237 64.5036 12.1535C64.326 12.4834 64.2372 12.8639 64.2372 13.2952C64.2372 13.7138 64.326 14.0944 64.5036 14.4368C64.6812 14.7667 64.9284 15.0267 65.2458 15.217C65.5626 15.3946 65.9244 15.4834 66.3306 15.4834Z" fill="#35AFF4"/>
<path fill-rule="evenodd" clip-rule="evenodd" d="M82.3687 18.1091C81.7477 18.1091 81.1765 17.9887 80.6563 17.7476C80.3827 17.6208 80.1355 17.4694 79.9147 17.2933V21.8195H77.0413V8.6715H79.9525V9.30972C80.1637 9.13698 80.3983 8.98764 80.6563 8.86176C81.1765 8.60802 81.7477 8.48118 82.3687 8.48118C83.2441 8.48118 84.0181 8.69052 84.6901 9.10914C85.3753 9.5277 85.9081 10.0985 86.2885 10.8216C86.6821 11.5447 86.8783 12.3692 86.8783 13.2952C86.8783 14.2212 86.6821 15.0457 86.2885 15.7688C85.9081 16.4918 85.3753 17.0626 84.6901 17.4812C84.0181 17.8999 83.2441 18.1091 82.3687 18.1091ZM81.8365 15.4834C82.2547 15.4834 82.6165 15.3882 82.9207 15.1979C83.2381 15.0077 83.4853 14.7476 83.6629 14.4178C83.8405 14.088 83.9293 13.7138 83.9293 13.2952C83.9293 12.8639 83.8405 12.4834 83.6629 12.1535C83.4853 11.8237 83.2381 11.57 82.9207 11.3924C82.6165 11.2021 82.2613 11.107 81.8551 11.107C81.4495 11.107 81.0877 11.2021 80.7709 11.3924C80.4661 11.57 80.2255 11.8237 80.0479 12.1535C79.8703 12.4834 79.7815 12.8639 79.7815 13.2952C79.7815 13.7138 79.8637 14.088 80.0287 14.4178C80.2063 14.7476 80.4535 15.0077 80.7709 15.1979C81.0877 15.3882 81.4429 15.4834 81.8365 15.4834Z" fill="#35AFF4"/>
<path d="M89.7276 17.9379C90.2604 18.0775 90.7992 18.1472 91.3446 18.1472C92.499 18.1472 93.4122 17.8808 94.0848 17.348C94.7694 16.8153 95.112 16.0986 95.112 15.1979C95.112 14.6144 95.0046 14.1451 94.7886 13.7899C94.5732 13.4221 94.2942 13.1303 93.9516 12.9146C93.609 12.699 93.2472 12.5277 92.8668 12.4009C92.4864 12.274 92.1246 12.1662 91.7826 12.0774C91.44 11.9886 91.161 11.8871 90.945 11.773C90.7296 11.6588 90.6216 11.5066 90.6216 11.3163C90.6216 11.1387 90.7044 11.0055 90.8688 10.9167C91.0338 10.8152 91.281 10.7645 91.611 10.7645C91.9536 10.7645 92.3022 10.8343 92.6574 10.9738C93.0252 11.1133 93.3552 11.3544 93.6468 11.6969L95.3022 10.0225C94.884 9.48966 94.3386 9.09006 93.666 8.82372C93.0066 8.54466 92.2836 8.4051 91.497 8.4051C90.7488 8.4051 90.0954 8.53194 89.5374 8.78562C88.9788 9.03936 88.5474 9.3882 88.2432 9.83214C87.939 10.2634 87.7866 10.7772 87.7866 11.3734C87.7866 11.9315 87.8946 12.3946 88.11 12.7624C88.3254 13.1176 88.605 13.3967 88.947 13.5996C89.2896 13.8026 89.6514 13.9612 90.0318 14.0753C90.4122 14.1895 90.774 14.2973 91.1166 14.3988C91.4586 14.4876 91.7382 14.5954 91.9536 14.7223C92.1822 14.8364 92.2962 15.0077 92.2962 15.236C92.2962 15.4136 92.2008 15.5531 92.0106 15.6546C91.833 15.7561 91.5732 15.8068 91.2306 15.8068C90.7356 15.8068 90.279 15.718 89.8608 15.5404C89.442 15.3502 89.0802 15.0901 88.776 14.7603L87.1206 16.4347C87.438 16.7772 87.8184 17.0817 88.2624 17.348C88.719 17.6017 89.2074 17.7983 89.7276 17.9379Z" fill="#35AFF4"/>
<path d="M100.421 18.1282C99.5712 18.1282 98.8164 17.9569 98.157 17.6144C97.5096 17.2592 97.0026 16.7772 96.6348 16.1683C96.2664 15.5468 96.0828 14.8364 96.0828 14.0372V8.6715H98.994V13.9992C98.994 14.3163 99.0444 14.5891 99.1464 14.8174C99.2604 15.0457 99.4254 15.2233 99.6408 15.3502C99.8568 15.477 100.117 15.5404 100.421 15.5404C100.852 15.5404 101.195 15.4072 101.449 15.1408C101.702 14.8618 101.829 14.4812 101.829 13.9992V8.6715H104.74V14.0182C104.74 14.8301 104.557 15.5468 104.188 16.1683C103.82 16.7772 103.313 17.2592 102.666 17.6144C102.019 17.9569 101.271 18.1282 100.421 18.1282Z" fill="#35AFF4"/>
<path d="M109.099 8.6715H106.188V17.9189H109.099V12.515C109.099 12.1979 109.162 11.9315 109.289 11.7159C109.429 11.5003 109.613 11.3353 109.841 11.2212C110.069 11.0943 110.329 11.0309 110.621 11.0309C111.04 11.0309 111.388 11.1641 111.667 11.4305C111.959 11.6842 112.105 12.0457 112.105 12.515V17.9189H115.016V12.515C115.016 12.1979 115.08 11.9315 115.207 11.7159C115.346 11.5003 115.53 11.3353 115.759 11.2212C115.987 11.0943 116.247 11.0309 116.539 11.0309C116.957 11.0309 117.306 11.1641 117.585 11.4305C117.877 11.6842 118.022 12.0457 118.022 12.515V17.9189H120.934V12.1916C120.934 11.4178 120.769 10.7582 120.439 10.2127C120.122 9.65454 119.685 9.22962 119.127 8.9379C118.581 8.6334 117.953 8.48118 117.243 8.48118C116.52 8.48118 115.866 8.63976 115.283 8.95692C114.904 9.15894 114.572 9.4197 114.289 9.73914C114.024 9.405 113.702 9.13158 113.323 8.91882C112.816 8.6271 112.238 8.48118 111.592 8.48118C110.906 8.48118 110.291 8.6271 109.746 8.91882C109.508 9.0402 109.293 9.18558 109.099 9.35496V8.6715Z" fill="#35AFF4"/>
</svg>
