<svg width="156" height="28" viewBox="0 0 156 28" fill="none" xmlns="http://www.w3.org/2000/svg">
<g clip-path="url(#clip0_359_191)">
<path d="M17.4087 22.9641C17.7668 22.9641 18.108 22.8789 18.4321 22.6912L22.1678 20.5419C22.9183 20.1154 23.7883 19.9278 24.6583 20.0301C29.1957 20.559 32.3685 21.4119 33.3067 21.6849C33.4943 21.736 33.7161 21.6678 33.8355 21.5142C33.989 21.3266 34.1767 21.0196 34.3302 20.576C34.4667 20.1495 34.4837 19.7913 34.4667 19.5354C34.4496 19.3307 34.3131 19.1431 34.1084 19.0919C32.6414 18.6654 26.1424 16.9085 17.4087 16.9085C8.67498 16.9085 2.17582 18.6655 0.708892 19.0919C0.50419 19.1431 0.367696 19.3307 0.350688 19.5355C0.333594 19.7742 0.350688 20.1325 0.487099 20.576C0.623509 21.0196 0.828296 21.3266 0.9818 21.5142C1.1012 21.6678 1.323 21.736 1.5106 21.6848C2.44881 21.4119 5.63865 20.559 10.159 20.0301C11.0289 19.9278 11.8989 20.1154 12.6494 20.5419L16.3852 22.6912C16.7093 22.8789 17.0675 22.9641 17.4087 22.9641ZM11.1825 10.87C11.3872 11.2282 11.7113 11.4671 12.0865 11.5694C12.4617 11.6717 12.8541 11.6206 13.2123 11.4159C13.5705 11.2112 13.8094 10.8871 13.9117 10.5118C14.014 10.1365 13.9629 9.74423 13.7582 9.38594L10.3978 3.56918C10.2955 3.38157 10.0737 3.31336 9.869 3.33037C9.59609 3.34747 9.22079 3.48388 8.77729 3.73978C8.33378 3.99567 8.02677 4.25149 7.87327 4.47328C7.75378 4.64388 7.71968 4.86559 7.82199 5.0532L11.1825 10.87ZM8.11207 15.0322C8.47019 15.2369 8.87959 15.271 9.23788 15.1857C9.6131 15.0833 9.9372 14.8445 10.1419 14.4863C10.3466 14.1281 10.3808 13.7188 10.2955 13.3605C10.2102 13.0022 9.9543 12.6611 9.59609 12.4564L3.77933 9.09594C3.59163 8.99363 3.36992 9.02773 3.19932 9.14722C2.97761 9.30064 2.72172 9.60774 2.46582 10.0512C2.20992 10.4947 2.07351 10.87 2.05642 11.143C2.03932 11.3647 2.12471 11.5694 2.29522 11.6718L8.11207 15.0322ZM18.8927 8.80602C18.8927 9.21543 18.7221 9.59064 18.4662 9.86355C18.1933 10.1365 17.8351 10.29 17.4087 10.29C16.9993 10.29 16.6241 10.1194 16.3511 9.86355C16.0782 9.59064 15.9246 9.23244 15.9246 8.80602V2.10217C15.9246 1.88046 16.0611 1.70986 16.2658 1.62456C16.5046 1.50516 16.8969 1.43695 17.4087 1.43695C17.9205 1.43695 18.3127 1.50516 18.5515 1.62456C18.7392 1.72695 18.8927 1.88046 18.8927 2.10217V8.80602ZM23.6348 10.87C23.4301 11.2282 23.106 11.4671 22.7307 11.5694C22.3554 11.6717 21.9631 11.6206 21.6049 11.4159C21.2467 11.2112 21.0079 10.8871 20.9055 10.5118C20.8031 10.1365 20.8543 9.74423 21.059 9.38594L24.4195 3.56918C24.5218 3.38157 24.7436 3.31336 24.9483 3.33037C25.2212 3.34747 25.5965 3.48388 26.04 3.73978C26.4835 3.99567 26.7906 4.25149 26.9441 4.47328C27.0635 4.64388 27.0976 4.86559 26.9953 5.0532L23.6348 10.87ZM26.7053 15.0322C26.3471 15.2369 25.9377 15.271 25.5795 15.1857C25.2042 15.0833 24.8801 14.8445 24.6754 14.4863C24.4706 14.1281 24.4365 13.7188 24.5218 13.3605C24.6242 12.9853 24.863 12.6611 25.2212 12.4564L31.038 9.09594C31.2256 8.99363 31.4474 9.02773 31.6179 9.14722C31.8397 9.30064 32.0955 9.60774 32.3514 10.0512C32.6073 10.4947 32.7437 10.87 32.7608 11.143C32.7779 11.3647 32.6926 11.5694 32.522 11.6718L26.7053 15.0322Z" fill="#909090"/>
<path d="M63.8064 10.4095H66.6039C66.7063 10.4095 66.7916 10.4777 66.8428 10.563L69.6232 17.6932L72.3184 10.563C72.3525 10.4607 72.4548 10.4095 72.5572 10.4095H75.3036C75.4912 10.4095 75.6106 10.5971 75.5253 10.7507L68.7021 26.4098C68.6679 26.4951 68.5656 26.5633 68.4803 26.5633H66.0581C65.8876 26.5633 65.7511 26.3757 65.8364 26.2222L68.1733 20.7465L63.6017 10.7506C63.4994 10.597 63.6188 10.4095 63.8064 10.4095ZM105.104 11.9959V10.6653C105.104 10.5288 105.223 10.4094 105.36 10.4094H107.833C107.97 10.4094 108.089 10.5288 108.089 10.6653V21.2924C108.089 21.4288 107.97 21.5482 107.833 21.5482H105.36C105.223 21.5482 105.104 21.4288 105.104 21.2924V19.8936C104.575 20.7124 103.415 21.7871 101.522 21.7871C97.9054 21.7871 96.029 19.0237 96.029 15.9361C96.029 11.9105 98.8264 10.1876 101.436 10.1876C103.159 10.1705 104.353 10.9893 105.104 11.9958V11.9959ZM99.0141 15.9533C99.0141 17.8638 100.191 19.3308 102.085 19.3308C103.978 19.3308 105.189 18.0515 105.189 16.0897C105.189 14.128 104.012 12.627 101.999 12.627C100.106 12.627 99.0141 14.094 99.0141 15.9533ZM110.324 21.2925V10.6653C110.324 10.5288 110.443 10.4094 110.579 10.4094H113.053C113.189 10.4094 113.309 10.5288 113.309 10.6653V12.1152C113.889 11.1088 114.98 10.1876 116.84 10.1876C118.75 10.1876 120.882 11.1258 120.882 15.4414V21.2924C120.882 21.4288 120.763 21.5482 120.627 21.5482H118.153C118.017 21.5482 117.897 21.4288 117.897 21.2924V15.4926C117.897 14.4521 117.642 12.661 115.799 12.661C113.957 12.661 113.309 14.2815 113.309 15.7826V21.2924C113.309 21.4288 113.189 21.5482 113.053 21.5482H110.579C110.426 21.5311 110.324 21.4288 110.324 21.2924L110.324 21.2925ZM122.998 21.2925V10.6653C122.998 10.5288 123.117 10.4094 123.254 10.4094H125.727C125.863 10.4094 125.983 10.5288 125.983 10.6653V12.1152C126.563 11.1088 127.655 10.1876 129.514 10.1876C131.424 10.1876 133.557 11.1258 133.557 15.4414V21.2924C133.557 21.4288 133.437 21.5482 133.301 21.5482H130.827C130.691 21.5482 130.571 21.4288 130.571 21.2924V15.4926C130.571 14.4521 130.316 12.661 128.473 12.661C126.631 12.661 125.983 14.2815 125.983 15.7826V21.2924C125.983 21.4288 125.863 21.5482 125.727 21.5482H123.253C123.117 21.5311 122.998 21.4289 122.998 21.2925ZM148.977 10.4095H151.382C151.519 10.4095 151.638 10.5289 151.638 10.6654V12.8658C152.116 10.6824 153.992 9.93186 155.357 10.256C155.476 10.2731 155.544 10.3754 155.544 10.4948V12.917C155.544 13.0705 155.408 13.1899 155.237 13.1558C152.713 12.6611 151.689 14.0258 151.689 15.9362V21.2925C151.689 21.4289 151.57 21.5483 151.433 21.5483H148.96C148.823 21.5483 148.704 21.4289 148.704 21.2925V10.6653C148.721 10.5288 148.841 10.4095 148.977 10.4095ZM47.4138 12.8317C46.6462 12.5758 46.2368 12.4223 45.6226 12.2176C44.9915 11.9959 43.9168 11.3817 43.9168 10.3924C43.9168 9.40306 44.5991 8.77186 45.9809 8.77186C47.2432 8.77186 47.9425 9.38596 48.4031 10.3753C48.4713 10.5118 48.6249 10.563 48.7613 10.4948L50.7912 9.31776C50.8935 9.24955 50.9447 9.11306 50.8935 8.99366C50.2795 7.64605 48.8466 6.02553 46.015 6.02553C42.8592 6.02553 40.8805 7.90194 40.8805 10.3754C40.8805 12.8318 42.501 14.111 44.7015 14.8616C45.5032 15.1345 45.8274 15.2539 46.5097 15.4757C47.8061 15.9192 48.4031 16.4991 48.4031 17.3009C48.4031 18.1027 47.8914 19.0579 45.8785 19.0579C44.0362 19.0579 43.388 18.0856 43.0127 17.1644C42.9616 17.0279 42.791 16.9597 42.6546 17.045L40.5223 18.2732C40.42 18.3415 40.3688 18.4609 40.42 18.5803C41.2388 20.5931 43.4733 21.7871 45.9809 21.7871C48.9319 21.7871 51.4223 20.2861 51.4223 17.2497C51.4223 14.2134 48.1813 13.0876 47.4138 12.8318V12.8317ZM63.7041 18.6315C63.6358 18.5121 63.4653 18.4609 63.3458 18.5462C62.3906 19.2455 61.2648 19.2626 60.4119 17.9491C59.6955 16.8403 58.8256 15.4756 58.8256 15.4756L62.5782 10.8189C62.7147 10.6483 62.5953 10.4095 62.3906 10.4095H59.4568C59.3715 10.4095 59.3032 10.4437 59.2521 10.5118L56.011 14.9639V6.00852C56.011 5.87203 55.8916 5.75262 55.7551 5.75262H53.2817C53.1453 5.75262 53.0259 5.87203 53.0259 6.00852V21.2925C53.0259 21.4289 53.1453 21.5483 53.2817 21.5483H55.7722C55.9087 21.5483 56.0281 21.4289 56.0281 21.2925V16.3285C56.0281 16.3285 57.6828 18.9384 58.3139 19.9107C59.1668 21.2412 60.3609 21.7871 61.6572 21.7871C62.8854 21.7871 63.67 21.463 64.6082 20.5418C64.6935 20.4565 64.7106 20.3371 64.6594 20.2348L63.7041 18.6315ZM81.4614 15.1174C80.6768 14.8275 80.4039 14.7251 79.8068 14.5034C79.2097 14.2817 78.681 13.9575 78.681 13.4799C78.681 13.0023 79.1246 12.4735 80.0286 12.4735C80.8132 12.4735 81.2909 12.7805 81.5638 13.3264C81.632 13.4628 81.7855 13.497 81.9049 13.4287L83.6449 12.4223C83.7643 12.3541 83.7985 12.2006 83.7302 12.0812C83.2526 11.2453 82.3143 10.1877 80.0456 10.1877C77.2653 10.1877 75.8324 11.7911 75.8324 13.5652C75.8324 15.3393 77.2823 16.175 78.6127 16.7038C80.1139 17.3179 80.2162 17.352 80.4039 17.4203C80.8644 17.6079 81.4273 17.8979 81.4273 18.4268C81.4273 18.9556 80.8132 19.4332 79.8751 19.4332C79.0051 19.4332 78.0158 19.075 77.6064 18.0685C77.5552 17.932 77.3846 17.8638 77.2482 17.9491L75.4912 18.9556C75.3889 19.0238 75.3377 19.1432 75.3889 19.2626C75.9006 20.5931 77.4188 21.7701 79.8751 21.7701C82.5361 21.7701 84.3102 20.3543 84.3102 18.3585C84.3102 16.3626 82.9455 15.6633 81.4614 15.1174ZM91.4574 12.8317C92.5662 12.8317 93.385 13.1729 94.1527 13.7187C94.2721 13.804 94.4426 13.7699 94.5108 13.6505L95.5343 11.8765C95.6026 11.7571 95.5685 11.6206 95.449 11.5524C94.3915 10.8359 93.078 10.1707 91.3039 10.1707C89.5469 10.1707 87.9264 10.6483 86.7665 11.8253C85.6066 12.9852 85.0778 14.3669 85.0778 16.0045C85.0778 17.9832 85.8966 19.2456 86.7836 20.1326C87.6706 21.0196 89.274 21.7701 91.321 21.7701C93.1633 21.7701 94.5279 21.0025 95.4661 20.3884C95.5684 20.3202 95.6026 20.1667 95.5343 20.0643L94.5279 18.3074C94.4597 18.1879 94.2891 18.1368 94.1698 18.2221C93.5045 18.6997 92.5492 19.1091 91.4745 19.1091C90.2634 19.1091 88.0629 18.4268 88.0629 15.9703C88.0629 13.5139 90.2463 12.8317 91.4574 12.8317ZM141.642 19.3138C140.653 19.3138 139.715 19.075 139.032 18.5291C138.35 17.9833 138.026 17.4203 138.026 16.755H146.862C146.998 16.755 147.118 16.6356 147.118 16.4991C147.067 13.8722 146.214 12.6441 145.395 11.8082C144.542 10.9553 143.092 10.1706 141.181 10.1706C139.271 10.1706 137.804 10.8701 136.798 11.8595C135.808 12.8488 135.058 14.111 135.058 16.0215C135.058 17.932 135.825 19.1944 136.764 20.1326C137.702 21.0708 139.237 21.7701 141.437 21.7701C143.518 21.7701 145.275 21.0366 146.538 19.5867C146.64 19.4673 146.606 19.2797 146.47 19.2115L144.713 18.1879C144.627 18.1367 144.508 18.1367 144.423 18.2221C143.553 19.0409 142.444 19.3138 141.642 19.3138ZM141.164 12.5588C142.58 12.5588 143.877 13.4117 144.081 14.9468H138.128C138.52 13.2923 139.749 12.5588 141.164 12.5588Z" fill="#909090"/>
</g>
<defs>
<clipPath id="clip0_359_191">
<rect width="155.211" height="28" fill="white" transform="translate(0.333496 0.00012207)"/>
</clipPath>
</defs>
</svg>
