<svg width="127" height="28" viewBox="0 0 127 28" fill="none" xmlns="http://www.w3.org/2000/svg">
<g clip-path="url(#clip0_359_164)">
<mask id="mask0_359_164" style="mask-type:luminance" maskUnits="userSpaceOnUse" x="0" y="7" width="109" height="22">
<path d="M0.351074 7.84906H108.17V28.0007H0.351074V7.84906Z" fill="white"/>
</mask>
<g mask="url(#mask0_359_164)">
<path d="M101.154 21.2797C102.415 20.9069 103.96 20.8892 104.975 20.8892H105.277V21.028C105.277 22.1785 104.877 23.4097 104.144 24.3021C103.533 25.0428 102.686 25.5446 101.642 25.5446C100.836 25.5446 100.225 25.3107 99.8036 24.954C99.3356 24.5587 99.0984 24.0068 99.0984 23.4678C99.0984 22.2527 100.015 21.6153 101.154 21.2797ZM97.7284 26.763C98.6821 27.5827 100.004 28.0007 101.32 28.0007C102.444 28.0007 103.449 27.6586 104.277 27.1115C104.682 26.8436 105.043 26.5258 105.356 26.174V27.6811H108.033V18.6655C108.033 16.8727 107.543 15.485 106.61 14.5313C105.668 13.5695 104.298 13.0725 102.548 13.0725C101.613 13.0725 100.646 13.2339 99.7697 13.5131C98.8773 13.7971 98.0769 14.2069 97.496 14.6975L97.191 14.9557L97.396 15.2978L98.2238 16.6791L98.4884 17.1196L98.9031 16.8163C99.4179 16.4419 99.9972 16.1434 100.609 15.9384C101.198 15.7416 101.819 15.635 102.44 15.635C103.326 15.635 104.083 15.8416 104.578 16.358C105.003 16.8017 105.259 17.4956 105.276 18.5122H104.948C103.634 18.5122 101.538 18.5816 99.7487 19.2206C97.8559 19.8952 96.3148 21.1829 96.3148 23.6276C96.3148 24.9782 96.8731 26.0271 97.7284 26.763ZM86.7054 27.6811H84.4204V8.08466H87.1766V18.4864H88.6369L92.4952 13.5728L92.6372 13.392H96.0356L95.4192 14.1585L90.9509 19.7209L95.9195 26.9421L96.4278 27.6811H93.0955L92.9551 27.4714L88.6418 21.0215H87.1766V27.6811H86.7054ZM71.0446 17.0325C70.2007 17.8942 69.6795 19.0964 69.6795 20.4696C69.6795 21.8913 70.1974 23.1193 71.0366 23.9923C71.8918 24.883 73.0843 25.4107 74.4091 25.4107C75.7356 25.4107 76.9378 24.8814 77.7995 23.9891C78.6434 23.1144 79.1646 21.8897 79.1646 20.4696C79.1646 19.0996 78.6402 17.8974 77.7914 17.0357C76.9313 16.1611 75.7324 15.635 74.4091 15.635C73.0892 15.635 71.8983 16.1611 71.0446 17.0325ZM69.0453 25.8173C67.6979 24.4715 66.87 22.6013 66.87 20.4696C66.87 18.3751 67.6995 16.5371 69.0485 15.2155C70.4137 13.8778 72.3081 13.0725 74.4091 13.0725C76.5118 13.0725 78.4143 13.8794 79.7859 15.2171C81.1398 16.5403 81.9757 18.3767 81.9757 20.4696C81.9757 22.5997 81.1414 24.4683 79.7908 25.8141C78.4191 27.1793 76.5134 28.0007 74.4091 28.0007C72.3065 28.0007 70.4105 27.1809 69.0453 25.8173ZM62.5535 27.1615C61.8047 26.6306 61.2157 25.6947 61.2157 24.052V8.08466H63.9735V23.6534C63.9735 24.3828 64.1203 24.7781 64.3285 24.9815C64.5109 25.1574 64.7739 25.1993 65.0208 25.1993C65.0837 25.1993 65.1612 25.1993 65.1951 25.1977C65.2499 25.1945 65.3112 25.1896 65.3726 25.1799L65.9196 25.0896V27.6618L65.5242 27.7263C65.4387 27.7409 65.3371 27.7554 65.2063 27.7667C65.0724 27.7796 64.9288 27.7876 64.782 27.7876C64.1671 27.7876 63.2941 27.6876 62.5535 27.1615ZM49.8635 16.5161C49.2761 17.0438 48.8243 17.7764 48.5839 18.6978H55.9245C55.8115 17.7393 55.4743 17.0034 54.9934 16.4822C54.3883 15.8255 53.5411 15.5027 52.6181 15.5027C51.5756 15.5027 50.6058 15.8497 49.8635 16.5161ZM47.685 25.8803C46.3586 24.5651 45.5598 22.7175 45.5598 20.5503C45.5598 18.3057 46.3134 16.4887 47.5301 15.2042C48.8356 13.8261 50.6687 13.0725 52.6713 13.0725C54.5754 13.0725 56.0439 13.7713 57.0637 14.8928C58.1804 16.1208 58.7452 17.8442 58.7452 19.6999C58.7452 19.8467 58.7371 20.0113 58.7274 20.1808C58.7178 20.3099 58.7032 20.4777 58.6887 20.6455L58.6484 21.0748H48.4225C48.5451 22.3447 49.026 23.3549 49.7376 24.0762C50.5993 24.9508 51.808 25.4107 53.1264 25.4107C53.796 25.4107 54.477 25.2719 55.1176 25.0234C55.7728 24.7668 56.3828 24.3973 56.8911 23.9406L57.3155 23.5598L57.6092 24.0488L58.6355 25.7593L58.3498 26.0191C57.6818 26.6258 56.833 27.1212 55.9196 27.4633C54.9982 27.807 54.0107 27.999 53.0715 27.999C50.9269 28.0007 49.0357 27.2196 47.685 25.8803ZM39.3633 27.6811H37.0687L36.9509 27.3794L31.7774 14.0327L31.5273 13.392H34.4868L34.603 13.697L38.3096 23.4888L38.3112 23.4937C38.329 23.5405 38.3451 23.5905 38.3628 23.6405C38.379 23.5905 38.3967 23.5405 38.4145 23.4937L38.4161 23.4888L42.1227 13.697L42.2389 13.392H45.1693L44.924 14.0311L39.8039 27.3778L39.6861 27.6811H39.3633ZM23.3524 21.2797C22.2132 21.6153 21.2982 22.2527 21.2982 23.4678C21.2982 24.0068 21.5354 24.5587 22.0034 24.954C22.4229 25.309 23.0345 25.5446 23.8398 25.5446C24.8854 25.5446 25.7326 25.0428 26.3426 24.3021C27.0768 23.4097 27.4754 22.1785 27.4754 21.028V20.8892H27.1736C26.1602 20.8892 24.6143 20.9069 23.3524 21.2797ZM19.9282 26.763C19.073 26.0271 18.5146 24.9782 18.5146 23.6276C18.5146 21.1829 20.0557 19.8952 21.9485 19.2206C23.7381 18.5816 25.8343 18.5122 27.1478 18.5122H27.4754C27.4592 17.4956 27.2027 16.8017 26.7766 16.358C26.2812 15.8416 25.526 15.635 24.6401 15.635C24.0173 15.635 23.3976 15.7416 22.8086 15.9384C22.197 16.1434 21.6161 16.4419 21.103 16.8163L20.6866 17.1196L20.4236 16.6775L19.5958 15.2978L19.3908 14.9557L19.6958 14.6975C20.2768 14.2053 21.0771 13.7971 21.9695 13.5114C22.8457 13.2339 23.8123 13.0725 24.7466 13.0725C26.4975 13.0725 27.8675 13.5679 28.8083 14.5313C29.7426 15.485 30.2331 16.8727 30.2331 18.6655V27.6811H27.556V26.174C27.243 26.5258 26.8799 26.8436 26.4765 27.1115C25.6471 27.6586 24.6417 27.999 23.5202 27.999C22.2035 28.0007 20.8819 27.5827 19.9282 26.763ZM12.5844 27.6811H10.2994V13.392H13.0297V15.3268C13.2944 14.9621 13.5945 14.633 13.9269 14.3489C14.7209 13.6728 15.6923 13.2581 16.7993 13.2581C16.9348 13.2581 17.0817 13.2662 17.2301 13.2839C17.3689 13.2984 17.5061 13.321 17.6319 13.3533L17.9918 13.4421V16.2402L17.3721 16.0352C17.3657 16.0336 17.3044 16.0272 17.214 16.0207C17.1059 16.0126 16.9736 16.0062 16.8525 16.0062C15.6875 16.0062 14.8209 16.5903 14.2174 17.444H14.2158C13.417 18.5736 13.0572 20.1646 13.0572 21.5572V27.6811H12.5844ZM4.08189 26.8937C2.98944 26.132 2.1116 24.7701 2.1116 22.3544V15.9529H0.351074V13.4969H2.13741V9.70317H4.86775V13.4969H8.25648V15.9529H4.86775V22.1672C4.86775 23.2903 5.14369 24.0036 5.53098 24.4538C6.08931 25.1009 6.90744 25.2251 7.43834 25.2251C7.52871 25.2251 7.62069 25.2251 7.6933 25.2203H7.69492C7.7756 25.2154 7.85951 25.2042 7.94988 25.1848L8.52273 25.0589V27.6618L8.12738 27.7263C8.02411 27.7441 7.88694 27.7602 7.72558 27.7715C7.58841 27.7812 7.43673 27.7876 7.27697 27.7876C6.43948 27.7876 5.16467 27.6473 4.08189 26.8937Z" fill="#909090"/>
</g>
<path d="M118.477 14.7862C118.493 14.7766 118.509 14.7669 118.525 14.7572C117.806 12.6078 120.798 8.9754 126.347 2.8999C121.861 3.45017 118.39 4.58942 115.936 6.31606C116.174 9.8371 117.022 12.661 118.477 14.7862Z" fill="#909090"/>
<path d="M118.477 14.7863C118.493 14.7766 118.509 14.7669 118.525 14.7572C118.501 14.6846 118.482 14.6104 118.466 14.5346C117.765 11.872 117.481 8.79633 117.614 5.30756C117.01 5.619 116.45 5.95464 115.936 6.3161C116.174 9.83715 117.022 12.6611 118.477 14.7863Z" fill="#909090"/>
<path d="M120.325 17.8684C121.509 18.4751 122.492 18.7882 123.362 18.6381C117.514 16.3451 115.087 10.1324 116.081 -0.00146484C113.98 0.411636 112.276 1.37177 111.088 2.97254C110.054 4.36837 110.386 6.14019 111.233 8.50745C111.348 8.82373 111.483 10.5342 110.777 11.17C110.515 11.4024 110.097 11.2184 109.736 10.9828C108.493 10.276 107.459 10.2825 106.636 11.0038C104.367 10.6214 102.724 10.4148 101.706 10.3793C103.158 10.836 104.837 11.3072 106.72 11.8558C107.525 12.0898 108.214 12.6433 108.758 13.4792C109.871 15.1897 113.026 16.1175 116.081 16.5581C117.226 16.7227 118.813 17.0938 120.325 17.8684Z" fill="#909090"/>
</g>
<defs>
<clipPath id="clip0_359_164">
<rect width="125.996" height="28" fill="white" transform="translate(0.351074 0.00012207)"/>
</clipPath>
</defs>
</svg>
